<svg width="76" height="76" viewBox="0 0 76 76" fill="none" xmlns="http://www.w3.org/2000/svg">
<path d="M76 38C76 58.9868 58.9868 76 38 76C17.0132 76 0 58.9868 0 38C0 17.0132 17.0132 0 38 0C58.9868 0 76 17.0132 76 38Z" fill="#22C129"/>
<path fill-rule="evenodd" clip-rule="evenodd" d="M37.1168 38.8923C44.6381 46.4115 46.3443 37.7127 51.1332 42.4981C55.7499 47.1136 58.4034 48.0384 52.554 53.8861C51.8213 54.475 47.1661 61.5591 30.806 45.2035C14.4438 28.8459 21.5238 24.1859 22.1128 23.4534C27.9764 17.5894 28.8852 20.2584 33.502 24.8739C38.2908 29.6614 29.5956 31.3732 37.1168 38.8923Z" fill="white"/>
</svg>
