<svg width="14" height="32" viewBox="0 0 14 32" fill="inherit" xmlns="http://www.w3.org/2000/svg">
<path d="M10.6369 25.92L10.6369 7.36C10.6369 7.36 10.9074 3.46473 6.9409 3.46473C3.36417 3.46473 3.36417 7.36 3.36417 7.36L3.36417 26.88C3.36417 26.88 3.36417 32 8.45508 32C13.546 32 13.546 26.88 13.546 26.88L13.546 7.36C13.546 7.36 13.546 5.72222e-07 7.00054 0C0.455081 -5.72222e-07 0.45508 7.36 0.45508 7.36L0.455078 26.88C0.455078 27.68 1.90962 27.68 1.90962 26.88L1.90963 7.36C1.90963 7.36 1.38017 1.45454 7.00054 1.45454C12.0914 1.45454 12.0914 7.36 12.0914 7.36L12.0914 26.88C12.0914 26.88 12.0914 30.5455 8.45508 30.5455C4.81872 30.5454 4.81872 26.88 4.81872 26.88L4.81872 7.36C4.81872 7.36 4.81872 5.06469 6.9409 5.06469C9.06304 5.06469 9.18235 7.36 9.18235 7.36L9.18235 25.92C9.18235 26.72 10.6369 26.72 10.6369 25.92Z" fill="inherit"/>
</svg>
