<svg width="100" height="100" viewBox="0 0 100 100" fill="none" xmlns="http://www.w3.org/2000/svg">
<circle cx="50" cy="50" r="49" stroke="#FA913E" stroke-width="2"/>
<g clip-path="url(#clip0_66_10)">
<path d="M78.1173 73.6831L70.0007 65.6165V34.5831L66.1673 27.5331C65.8846 26.9956 65.4603 26.5456 64.9404 26.2317C64.4205 25.9177 63.8247 25.7518 63.2173 25.7518C62.61 25.7518 62.0142 25.9177 61.4943 26.2317C60.9744 26.5456 60.5501 26.9956 60.2673 27.5331L56.6673 34.5998V52.3498L26.184 22.0165C25.9509 21.7814 25.6531 21.6211 25.3285 21.556C25.0039 21.4909 24.6673 21.5239 24.3615 21.6508C24.0558 21.7778 23.7948 21.9929 23.6118 22.2688C23.4288 22.5446 23.3321 22.8688 23.334 23.1998V36.6665H26.9507V39.3331H23.334V49.9998H26.9507V52.6665H23.334V63.7498H26.9507V66.4165H23.334V74.8665C23.334 75.3085 23.5096 75.7324 23.8222 76.045C24.1347 76.3575 24.5587 76.5331 25.0007 76.5331H76.934C77.265 76.5351 77.5892 76.4384 77.865 76.2554C78.1409 76.0724 78.356 75.8113 78.483 75.5056C78.6099 75.1999 78.6429 74.8632 78.5778 74.5387C78.5127 74.2141 78.3524 73.9162 78.1173 73.6831V73.6831ZM36.6673 63.3331V48.2331L51.784 63.3331H36.6673ZM66.6673 66.8498H60.0007V62.7998H66.6673V66.8498ZM66.6673 60.1831H60.0007V35.4165L63.234 29.1331L66.6673 35.4331V60.1831Z" fill="#FA913E"/>
</g>
<defs>
<clipPath id="clip0_66_10">
<rect width="60" height="60" fill="white" transform="translate(20 20)"/>
</clipPath>
</defs>
</svg>
