<svg width="51" height="56" viewBox="0 0 51 56" fill="none" xmlns="http://www.w3.org/2000/svg">
<path d="M25.7969 1L1.79688 11.5L25.7969 22L49.7969 11.5L25.7969 1Z" stroke="#FA913E" stroke-width="2" stroke-linejoin="round"/>
<path fill-rule="evenodd" clip-rule="evenodd" d="M17.882 20.1547L1.60756 27.0984C1.23909 27.2556 1 27.6176 1 28.0182C1 28.4188 1.23909 28.7807 1.60756 28.938L25.2525 39.0265C25.5032 39.1334 25.7867 39.1334 26.0374 39.0265L49.6823 28.938C50.0508 28.7807 50.2898 28.4188 50.2898 28.0182C50.2898 27.6176 50.0508 27.2556 49.6823 27.0984L33.4079 20.1547L30.8597 21.2419L46.7417 28.0182L25.6449 37.0195L4.54817 28.0182L20.4302 21.2419L17.882 20.1547ZM25.7633 19.0674L25.6449 19.0169L25.5265 19.0674L22.9783 17.9802L25.2525 17.0099C25.5032 16.9029 25.7867 16.9029 26.0374 17.0099L28.3115 17.9802L25.7633 19.0674Z" fill="#FA913E"/>
<path fill-rule="evenodd" clip-rule="evenodd" d="M17.882 36.9672L1.60756 43.9109C1.23909 44.0681 1 44.4301 1 44.8307C1 45.2313 1.23909 45.5932 1.60756 45.7505L25.2525 55.839C25.5032 55.9459 25.7867 55.9459 26.0374 55.839L49.6823 45.7505C50.0508 45.5932 50.2898 45.2313 50.2898 44.8307C50.2898 44.4301 50.0508 44.0681 49.6823 43.9109L33.4079 36.9672L30.8597 38.0544L46.7417 44.8307L25.6449 53.832L4.54817 44.8307L20.4302 38.0544L17.882 36.9672ZM25.7633 35.8799L25.6449 35.8294L25.5265 35.8799L22.9783 34.7927L25.2525 33.8224C25.5032 33.7154 25.7867 33.7154 26.0374 33.8224L28.3115 34.7927L25.7633 35.8799Z" fill="#FA913E"/>
</svg>
