<svg width="100" height="100" viewBox="0 0 100 100" fill="none" xmlns="http://www.w3.org/2000/svg">
<circle cx="50" cy="50" r="49" stroke="#FA913E" stroke-width="2"/>
<path d="M54 23.75V36.875C54 38.3668 54.5926 39.7976 55.6475 40.8525C56.7024 41.9074 58.1332 42.5 59.625 42.5H72.75V70.625C72.75 72.1168 72.1574 73.5476 71.1025 74.6025C70.0476 75.6574 68.6168 76.25 67.125 76.25H50.16C50.22 75.95 50.25 75.635 50.25 75.3125V63.6688C52.3752 61.2616 53.6719 58.236 53.9493 55.0369C54.2268 51.8378 53.4702 48.6341 51.7911 45.8971C50.1119 43.16 47.5987 41.0341 44.6211 39.8319C41.6436 38.6297 38.3588 38.4148 35.25 39.2188V29.375C35.25 27.8832 35.8426 26.4524 36.8975 25.3975C37.9524 24.3426 39.3832 23.75 40.875 23.75H54ZM57.75 24.6875V36.875C57.75 37.3723 57.9475 37.8492 58.2992 38.2008C58.6508 38.5525 59.1277 38.75 59.625 38.75H71.8125L57.75 24.6875ZM50.25 53.75C50.25 55.2274 49.959 56.6903 49.3936 58.0552C48.8283 59.4201 47.9996 60.6603 46.955 61.705C45.9103 62.7496 44.6701 63.5783 43.3052 64.1436C41.9403 64.709 40.4774 65 39 65C37.5226 65 36.0597 64.709 34.6948 64.1436C33.3299 63.5783 32.0897 62.7496 31.045 61.705C30.0004 60.6603 29.1717 59.4201 28.6064 58.0552C28.041 56.6903 27.75 55.2274 27.75 53.75C27.75 50.7663 28.9353 47.9048 31.045 45.795C33.1548 43.6853 36.0163 42.5 39 42.5C41.9837 42.5 44.8452 43.6853 46.955 45.795C49.0647 47.9048 50.25 50.7663 50.25 53.75ZM46.5 66.74C44.221 68.0596 41.6335 68.7531 39 68.75C36.3668 68.7542 33.7794 68.0621 31.5 66.7438V75.3163C31.5005 75.4817 31.5448 75.644 31.6283 75.7868C31.7118 75.9296 31.8317 76.0478 31.9756 76.1293C32.1196 76.2108 32.2826 76.2527 32.448 76.2509C32.6134 76.249 32.7754 76.2035 32.9175 76.1188L39 72.5L45.0825 76.1188C45.2249 76.2036 45.3872 76.2492 45.553 76.2509C45.7187 76.2526 45.8819 76.2103 46.026 76.1284C46.1701 76.0464 46.2899 75.9277 46.3731 75.7844C46.4564 75.6411 46.5002 75.4783 46.5 75.3125V66.74Z" fill="#FA913E"/>
<path d="M44 50.0547L39 58.754" stroke="white" stroke-width="2" stroke-linecap="round"/>
<path d="M34 50.0547L39 58.754" stroke="white" stroke-width="2" stroke-linecap="round"/>
</svg>
