<svg width="100" height="100" viewBox="0 0 100 100" fill="none" xmlns="http://www.w3.org/2000/svg">
<circle cx="50" cy="50" r="49" stroke="#FA913E" stroke-width="2"/>
<path d="M47.3478 24.6253C48.0511 23.9223 49.0047 23.5273 49.9991 23.5273C50.9935 23.5273 51.9471 23.9223 52.6503 24.6253L61.2491 33.224V28.3753C61.2491 27.878 61.4466 27.4011 61.7983 27.0495C62.1499 26.6978 62.6268 26.5003 63.1241 26.5003H66.8741C67.3714 26.5003 67.8483 26.6978 68.1999 27.0495C68.5515 27.4011 68.7491 27.878 68.7491 28.3753V40.724L77.5766 49.5478C77.9282 49.8999 78.1255 50.3772 78.1251 50.8747C78.1248 51.3723 77.9268 51.8493 77.5747 52.2009C77.2226 52.5525 76.7453 52.7498 76.2478 52.7495C75.7502 52.7491 75.2732 52.5511 74.9216 52.199L49.9991 27.2765L25.0766 52.199C24.725 52.5511 24.248 52.7491 23.7504 52.7495C23.2529 52.7498 22.7755 52.5525 22.4235 52.2009C22.0714 51.8493 21.8734 51.3723 21.873 50.8747C21.8727 50.3772 22.07 49.8999 22.4216 49.5478L47.3478 24.6253Z" fill="#FA913E"/>
<path d="M72.5 53.8477L50 31.3477L27.5 53.8477V69.6239C27.5 71.1158 28.0926 72.5465 29.1475 73.6014C30.2024 74.6563 31.6332 75.2489 33.125 75.2489H66.875C68.3668 75.2489 69.7976 74.6563 70.8525 73.6014C71.9074 72.5465 72.5 71.1158 72.5 69.6239V53.8477ZM50 50.8064C56.24 44.5327 71.8437 55.5089 50 69.6239C28.1563 55.5089 43.76 44.5327 50 50.8064Z" fill="#FA913E"/>
</svg>
