<svg width="100" height="100" viewBox="0 0 100 100" fill="none" xmlns="http://www.w3.org/2000/svg">
<circle cx="50" cy="50" r="49" stroke="#FA913E" stroke-width="2"/>
<circle cx="35.7143" cy="61.9292" r="10.7143" fill="#FA913E" stroke="#FA913E" stroke-width="2"/>
<path d="M72.1181 30.4749C73.4849 29.108 73.4849 26.892 72.1181 25.5251C70.7513 24.1583 68.5352 24.1583 67.1683 25.5251L72.1181 30.4749ZM72.5255 42.9749L75.0004 45.4498L79.9501 40.5L77.4753 38.0252L72.5255 42.9749ZM65.3826 42.9749L67.8575 45.4498L72.8072 40.5L70.3324 38.0252L65.3826 42.9749ZM40.3825 52.3109C39.0157 53.6778 39.0157 55.8938 40.3825 57.2607C41.7494 58.6275 43.9655 58.6275 45.3323 57.2607L40.3825 52.3109ZM58.9289 38.7143L56.454 36.2394L56.454 36.2394L58.9289 38.7143ZM63.5969 48.3321L66.0718 50.8069L71.0215 45.8572L68.5467 43.3823L63.5969 48.3321ZM68.5467 34.0463L72.1181 30.4749L67.1683 25.5251L63.5969 29.0966L68.5467 34.0463ZM63.5969 34.0463L72.5255 42.9749L77.4753 38.0252L68.5467 29.0966L63.5969 34.0463ZM64.9752 37.6178L68.5467 34.0463L63.5969 29.0966L60.0255 32.668L64.9752 37.6178ZM60.0255 37.6178L65.3826 42.9749L70.3324 38.0252L64.9752 32.668L60.0255 37.6178ZM45.3323 57.2607L61.4038 41.1892L56.454 36.2394L40.3825 52.3109L45.3323 57.2607ZM61.4038 41.1892L64.9752 37.6178L60.0255 32.668L56.454 36.2394L61.4038 41.1892ZM56.454 41.1892L63.5969 48.3321L68.5467 43.3823L61.4038 36.2394L56.454 41.1892Z" fill="#FA913E"/>
</svg>
