<svg width="45" height="56" viewBox="0 0 45 56" fill="none" xmlns="http://www.w3.org/2000/svg">
<path d="M11.5684 30C11.0161 30 10.5684 30.4477 10.5684 31C10.5684 31.5523 11.0161 32 11.5684 32V30ZM27.4213 32C27.9736 32 28.4213 31.5523 28.4213 31C28.4213 30.4477 27.9736 30 27.4213 30V32ZM11.5684 18C11.0161 18 10.5684 18.4477 10.5684 19C10.5684 19.5523 11.0161 20 11.5684 20V18ZM22.137 20C22.6893 20 23.137 19.5523 23.137 19C23.137 18.4477 22.6893 18 22.137 18V20ZM11.5684 42C11.0161 42 10.5684 42.4477 10.5684 43C10.5684 43.5523 11.0161 44 11.5684 44V42ZM22.137 44C22.6893 44 23.137 43.5523 23.137 43C23.137 42.4477 22.6893 42 22.137 42V44ZM1.87868 54.1213L2.58579 53.4142L2.58579 53.4142L1.87868 54.1213ZM37.1115 54.1213L36.4044 53.4142L36.4044 53.4142L37.1115 54.1213ZM36.3477 1C36.3477 0.447715 35.8999 0 35.3477 0C34.7954 0 34.3477 0.447715 34.3477 1H36.3477ZM34.3477 19C34.3477 19.5523 34.7954 20 35.3477 20C35.8999 20 36.3477 19.5523 36.3477 19H34.3477ZM43.2734 11C43.8257 11 44.2734 10.5523 44.2734 10C44.2734 9.44772 43.8257 9 43.2734 9V11ZM27.4205 9C26.8682 9 26.4205 9.44772 26.4205 10C26.4205 10.5523 26.8682 11 27.4205 11V9ZM11.5684 32H27.4213V30H11.5684V32ZM11.5684 20H22.137V18H11.5684V20ZM11.5684 44H22.137V42H11.5684V44ZM31.9902 54H7V56H31.9902V54ZM2 49V7H0V49H2ZM36.9902 31V49H38.9902V31H36.9902ZM7 2H16.8529V0H7V2ZM7 54C5.55751 54 4.57625 53.9979 3.84143 53.8991C3.13538 53.8042 2.80836 53.6368 2.58579 53.4142L1.17157 54.8284C1.82768 55.4845 2.64711 55.7565 3.57494 55.8812C4.474 56.0021 5.61405 56 7 56V54ZM0 49C0 50.3859 -0.00212374 51.526 0.118752 52.4251C0.243496 53.3529 0.515464 54.1723 1.17157 54.8284L2.58579 53.4142C2.36322 53.1916 2.19584 52.8646 2.10092 52.1586C2.00212 51.4237 2 50.4425 2 49H0ZM31.9902 56C33.3761 56 34.5162 56.0021 35.4153 55.8812C36.3431 55.7565 37.1625 55.4845 37.8186 54.8284L36.4044 53.4142C36.1818 53.6368 35.8548 53.8042 35.1488 53.8991C34.4139 53.9979 33.4327 54 31.9902 54V56ZM36.9902 49C36.9902 50.4425 36.9881 51.4237 36.8893 52.1586C36.7944 52.8646 36.627 53.1916 36.4044 53.4142L37.8186 54.8284C38.4747 54.1723 38.7467 53.3529 38.8714 52.4251C38.9923 51.526 38.9902 50.3859 38.9902 49H36.9902ZM2 7C2 5.55752 2.00212 4.57625 2.10092 3.84143C2.19584 3.13538 2.36322 2.80836 2.58579 2.58579L1.17157 1.17157C0.515464 1.82768 0.243496 2.64711 0.118752 3.57494C-0.00212374 4.474 0 5.61406 0 7H2ZM7 0C5.61406 0 4.474 -0.00212373 3.57494 0.118752C2.64711 0.243496 1.82768 0.515464 1.17157 1.17157L2.58579 2.58579C2.80836 2.36322 3.13538 2.19584 3.84143 2.10092C4.57625 2.00212 5.55752 2 7 2V0ZM34.3477 1V19H36.3477V1H34.3477ZM43.2734 9H27.4205V11H43.2734V9Z" fill="#FA913E"/>
</svg>
