<svg width="50" height="56" viewBox="0 0 50 56" fill="none" xmlns="http://www.w3.org/2000/svg">
<path d="M26 6V4.5C26 4.49268 26 4.48484 26 4.47653C26.0002 4.38312 26.0005 4.23037 25.9819 4.09243C25.9579 3.91347 25.8873 3.6195 25.6339 3.36612C25.3805 3.11274 25.0865 3.04213 24.9076 3.01807C24.7696 2.99953 24.6169 2.9998 24.5235 2.99997C24.5152 2.99999 24.5073 3 24.5 3H13.5C13.4927 3 13.4848 2.99999 13.4765 2.99997C13.3831 2.9998 13.2304 2.99953 13.0924 3.01807C12.9135 3.04213 12.6195 3.11274 12.3661 3.36612C12.1127 3.6195 12.0421 3.91347 12.0181 4.09243C11.9995 4.23037 11.9998 4.38313 12 4.47653C12 4.48484 12 4.49268 12 4.5V6C12 6.01294 12 6.02608 12 6.03938C11.9999 6.23926 11.9997 6.47723 12.0272 6.68188C12.0604 6.92893 12.1493 7.27067 12.4393 7.56066C12.7293 7.85065 13.0711 7.93956 13.3181 7.97278C13.5228 8.00029 13.7607 8.00014 13.9606 8.00002C13.9739 8.00001 13.9871 8 14 8H24C24.0129 8 24.0261 8.00001 24.0394 8.00002C24.2393 8.00014 24.4772 8.00029 24.6819 7.97278C24.9289 7.93956 25.2707 7.85065 25.5607 7.56066L24.8536 6.85355L25.5607 7.56066C25.8507 7.27067 25.9396 6.92893 25.9728 6.68188C26.0003 6.47723 26.0001 6.23926 26 6.03938C26 6.02608 26 6.01295 26 6Z" stroke="#FA913E" stroke-width="2"/>
<rect x="1" y="1" width="36" height="54" rx="2" stroke="#FA913E" stroke-width="2"/>
<circle cx="19" cy="46" r="3" fill="#FA913E"/>
</svg>
