<svg width="44" height="44" viewBox="0 0 44 44" fill="none" xmlns="http://www.w3.org/2000/svg">
<path d="M0.998906 21.9989C0.998906 10.4009 10.4009 0.998906 21.9989 0.998906C33.5969 0.998906 42.9989 10.4009 42.9989 21.9989C42.9989 33.5969 33.5969 42.9989 21.9989 42.9989C10.4009 42.9989 0.998906 33.5969 0.998906 21.9989Z" fill="white"/>
<path d="M21.9989 0.878906C10.3345 0.878906 0.878906 10.3345 0.878906 21.9989C0.878906 33.6633 10.3345 43.1189 21.9989 43.1189C33.6633 43.1189 43.1189 33.6633 43.1189 21.9989C43.1189 10.3345 33.6633 0.878906 21.9989 0.878906ZM30.1213 24.7071C30.1213 24.7071 31.9891 26.5507 32.4489 27.4065C32.4621 27.4241 32.4687 27.4417 32.4731 27.4505C32.6601 27.7651 32.7041 28.0093 32.6117 28.1919C32.4577 28.4955 31.9297 28.6451 31.7493 28.6583H28.4493C28.2205 28.6583 27.7409 28.5989 27.1601 28.1985C26.7135 27.8861 26.2735 27.3735 25.8445 26.8741C25.2043 26.1305 24.6499 25.4881 24.0911 25.4881C24.0201 25.488 23.9496 25.4991 23.8821 25.5211C23.4597 25.6575 22.9185 26.2603 22.9185 27.8663C22.9185 28.3679 22.5225 28.6561 22.2431 28.6561H20.7317C20.2169 28.6561 17.5351 28.4757 15.1591 25.9699C12.2507 22.9009 9.63271 16.7453 9.61071 16.6881C9.44571 16.2899 9.78671 16.0765 10.1585 16.0765H13.4915C13.9359 16.0765 14.0811 16.3471 14.1823 16.5869C14.3011 16.8663 14.7367 17.9773 15.4517 19.2269C16.6111 21.2641 17.3217 22.0913 17.8915 22.0913C17.9983 22.09 18.1033 22.0629 18.1973 22.0121C18.9409 21.5985 18.8023 18.9475 18.7693 18.3975C18.7693 18.2941 18.7671 17.2117 18.3865 16.6925C18.1137 16.3163 17.6495 16.1733 17.3679 16.1205C17.4819 15.9632 17.632 15.8357 17.8057 15.7487C18.3161 15.4935 19.2357 15.4561 20.1487 15.4561H20.6569C21.6469 15.4693 21.9021 15.5331 22.2607 15.6233C22.9867 15.7971 23.0021 16.2657 22.9383 17.8695C22.9185 18.3249 22.8987 18.8397 22.8987 19.4469C22.8987 19.5789 22.8921 19.7197 22.8921 19.8693C22.8701 20.6855 22.8437 21.6117 23.4201 21.9923C23.4953 22.0394 23.5822 22.0646 23.6709 22.0649C23.8711 22.0649 24.4739 22.0649 26.1063 19.2643C26.6097 18.3629 27.0472 17.4262 27.4153 16.4615C27.4483 16.4043 27.5451 16.2283 27.6595 16.1601C27.7439 16.1171 27.8375 16.0952 27.9323 16.0963H31.8505C32.2773 16.0963 32.5699 16.1601 32.6249 16.3251C32.7217 16.5869 32.6073 17.3855 30.8187 19.8077L30.0201 20.8615C28.3987 22.9867 28.3987 23.0945 30.1213 24.7071Z" fill="#476CED"/>
</svg>
