<svg width="100" height="100" viewBox="0 0 100 100" fill="none" xmlns="http://www.w3.org/2000/svg">
<circle cx="50" cy="50" r="49" stroke="#FA913E" stroke-width="2"/>
<path fill-rule="evenodd" clip-rule="evenodd" d="M23.1013 25.8787C22.2227 26.7574 22.2227 28.1716 22.2227 31V69C22.2227 71.8284 22.2227 73.2426 23.1013 74.1213C23.98 75 25.3942 75 28.2227 75H71.2227C74.0511 75 75.4653 75 76.344 74.1213C77.2227 73.2426 77.2227 71.8284 77.2227 69V63.8889H60.4727C56.7014 63.8889 54.8158 63.8889 53.6442 62.7173C52.4727 61.5457 52.4727 59.6601 52.4727 55.8889V55.2222C52.4727 51.451 52.4727 49.5654 53.6442 48.3938C54.8158 47.2222 56.7014 47.2222 60.4727 47.2222H77.2227V31C77.2227 28.1716 77.2227 26.7574 76.344 25.8787C75.4653 25 74.0511 25 71.2227 25H28.2227C25.3942 25 23.98 25 23.1013 25.8787ZM36.1116 37.8889C35.5593 37.8889 35.1116 38.3366 35.1116 38.8889C35.1116 39.4412 35.5593 39.8889 36.1116 39.8889H46.1116C46.6639 39.8889 47.1116 39.4412 47.1116 38.8889C47.1116 38.3366 46.6639 37.8889 46.1116 37.8889H36.1116Z" fill="#FA913E"/>
<path d="M71.1113 55.5547H61.1113" stroke="#FA913E" stroke-width="2" stroke-linecap="round"/>
</svg>
