<svg width="100" height="100" viewBox="0 0 100 100" fill="none" xmlns="http://www.w3.org/2000/svg">
<circle cx="50" cy="50" r="49" stroke="#FA913E" stroke-width="2"/>
<g clip-path="url(#clip0_66_2)">
<path d="M52.2159 11.3883L77.9847 20.0734C80.8692 21.041 82.8195 23.7027 82.8352 26.6857L82.9993 52.5843C83.0501 60.4357 80.2008 68.05 74.983 74.016C72.5831 76.7542 69.5071 79.1062 65.5791 81.2096L51.7273 88.648C51.2935 88.8774 50.8166 88.996 50.3359 88.9999C49.8551 89.0036 49.3744 88.8889 48.9445 88.6633L34.9637 81.397C30.9927 79.328 27.8893 77.0105 25.466 74.3105C20.1622 68.4057 17.2152 60.8258 17.1643 52.9629L17.0001 27.0835C16.9846 24.0966 18.8997 21.4158 21.7686 20.41L47.4397 11.4151C48.964 10.872 50.6642 10.8605 52.2159 11.3883ZM64.5386 39.1528C63.3856 38.0399 61.5291 38.0475 60.3917 39.1757L47.3138 52.125L41.9592 46.9544C40.8062 45.8416 38.9535 45.853 37.8122 46.9812C36.6749 48.1094 36.6866 49.9222 37.8396 51.035L45.2775 58.2248C45.856 58.7832 46.6064 59.0585 47.3568 59.051C48.1073 59.0471 48.8538 58.7641 49.4244 58.1981L64.5621 43.2066C65.6995 42.0784 65.6877 40.2656 64.5386 39.1528Z" fill="#FA913E"/>
<path d="M44.1459 26.1671C45.6819 20.0887 54.3181 20.0887 55.8541 26.1671V26.1671C56.776 29.8155 60.7743 31.741 64.2016 30.187V30.187C69.9115 27.598 75.2961 34.3501 71.5015 39.3408V39.3408C69.2238 42.3363 70.2113 46.6629 73.5631 48.3735V48.3735C79.1473 51.2235 77.2256 59.6432 70.9578 59.7881V59.7881C67.1957 59.875 64.4288 63.3447 65.1812 67.0318V67.0318C66.4347 73.1747 58.6537 76.9218 54.6325 72.1117V72.1117C52.2189 69.2246 47.7811 69.2247 45.3675 72.1117V72.1117C41.3463 76.9218 33.5653 73.1747 34.8188 67.0318V67.0318C35.5712 63.3447 32.8043 59.875 29.0422 59.7881V59.7881C22.7744 59.6432 20.8527 51.2235 26.4369 48.3735V48.3735C29.7887 46.6629 30.7762 42.3363 28.4985 39.3408V39.3408C24.7039 34.3501 30.0885 27.598 35.7984 30.187V30.187C39.2257 31.741 43.224 29.8155 44.1459 26.1671V26.1671Z" fill="white"/>
<path d="M44.4342 49V38.95L44.9142 39.46H41.9592V38.5H45.5142V49H44.4342ZM52.2091 49.09C51.3991 49.09 50.6791 48.88 50.0491 48.46C49.4191 48.03 48.9241 47.42 48.5641 46.63C48.2041 45.83 48.0241 44.87 48.0241 43.75C48.0241 42.63 48.2041 41.675 48.5641 40.885C48.9241 40.085 49.4191 39.475 50.0491 39.055C50.6791 38.625 51.3991 38.41 52.2091 38.41C53.0191 38.41 53.7391 38.625 54.3691 39.055C54.9991 39.475 55.4941 40.085 55.8541 40.885C56.2241 41.675 56.4091 42.63 56.4091 43.75C56.4091 44.87 56.2241 45.83 55.8541 46.63C55.4941 47.42 54.9991 48.03 54.3691 48.46C53.7391 48.88 53.0191 49.09 52.2091 49.09ZM52.2091 48.1C52.8291 48.1 53.3691 47.935 53.8291 47.605C54.2891 47.265 54.6491 46.775 54.9091 46.135C55.1691 45.485 55.2991 44.69 55.2991 43.75C55.2991 42.81 55.1691 42.02 54.9091 41.38C54.6491 40.73 54.2891 40.24 53.8291 39.91C53.3691 39.57 52.8291 39.4 52.2091 39.4C51.6091 39.4 51.0741 39.57 50.6041 39.91C50.1341 40.24 49.7691 40.73 49.5091 41.38C49.2491 42.02 49.1191 42.81 49.1191 43.75C49.1191 44.69 49.2491 45.485 49.5091 46.135C49.7691 46.775 50.1341 47.265 50.6041 47.605C51.0741 47.935 51.6091 48.1 52.2091 48.1ZM40.3758 60.985L40.4508 60.07C40.5208 60.08 40.5858 60.095 40.6458 60.115C40.7158 60.125 40.7758 60.13 40.8258 60.13C41.1458 60.13 41.4008 60.01 41.5908 59.77C41.7908 59.53 41.9408 59.21 42.0408 58.81C42.1408 58.41 42.2108 57.96 42.2508 57.46C42.2908 56.95 42.3258 56.44 42.3558 55.93L42.4908 53.125H48.2658V61H47.2008V53.74L47.4708 54.055H43.1808L43.4358 53.725L43.3158 56.005C43.2858 56.685 43.2308 57.335 43.1508 57.955C43.0808 58.575 42.9658 59.12 42.8058 59.59C42.6558 60.06 42.4458 60.43 42.1758 60.7C41.9058 60.96 41.5608 61.09 41.1408 61.09C41.0208 61.09 40.8958 61.08 40.7658 61.06C40.6458 61.04 40.5158 61.015 40.3758 60.985ZM54.6683 61.075C53.8483 61.075 53.1283 60.905 52.5083 60.565C51.8883 60.215 51.4033 59.74 51.0533 59.14C50.7033 58.53 50.5283 57.835 50.5283 57.055C50.5283 56.275 50.6933 55.585 51.0233 54.985C51.3633 54.385 51.8233 53.915 52.4033 53.575C52.9933 53.225 53.6533 53.05 54.3833 53.05C55.1233 53.05 55.7783 53.22 56.3483 53.56C56.9283 53.89 57.3833 54.36 57.7133 54.97C58.0433 55.57 58.2083 56.265 58.2083 57.055C58.2083 57.105 58.2033 57.16 58.1933 57.22C58.1933 57.27 58.1933 57.325 58.1933 57.385H51.3383V56.59H57.6233L57.2033 56.905C57.2033 56.335 57.0783 55.83 56.8283 55.39C56.5883 54.94 56.2583 54.59 55.8383 54.34C55.4183 54.09 54.9333 53.965 54.3833 53.965C53.8433 53.965 53.3583 54.09 52.9283 54.34C52.4983 54.59 52.1633 54.94 51.9233 55.39C51.6833 55.84 51.5633 56.355 51.5633 56.935V57.1C51.5633 57.7 51.6933 58.23 51.9533 58.69C52.2233 59.14 52.5933 59.495 53.0633 59.755C53.5433 60.005 54.0883 60.13 54.6983 60.13C55.1783 60.13 55.6233 60.045 56.0333 59.875C56.4533 59.705 56.8133 59.445 57.1133 59.095L57.7133 59.785C57.3633 60.205 56.9233 60.525 56.3933 60.745C55.8733 60.965 55.2983 61.075 54.6683 61.075ZM48.9701 73V65.77L49.2401 66.055H45.9851V65.125H53.0201V66.055H49.7651L50.0351 65.77V73H48.9701Z" fill="#FA913E"/>
</g>
<defs>
<clipPath id="clip0_66_2">
<rect width="84" height="84" fill="white" transform="translate(8 8)"/>
</clipPath>
</defs>
</svg>
