<svg width="27" height="19" viewBox="0 0 27 19" fill="inherit" xmlns="http://www.w3.org/2000/svg">
<path d="M26.2304 2.71478L26.2639 2.93384C25.9398 1.78378 25.0647 0.896368 23.9526 0.573368L23.9291 0.56778C21.838 1.53219e-05 13.4233 1.54459e-05 13.4233 1.54459e-05C13.4233 1.54459e-05 5.02974 -0.0111611 2.91739 0.56778C1.78409 0.896368 0.907858 1.78378 0.589328 2.91037L0.58374 2.93384C-0.197495 7.01436 -0.203083 11.9175 0.618387 16.2864L0.58374 16.0651C0.907858 17.2151 1.78297 18.1025 2.89503 18.4255L2.9185 18.4311C5.00738 19 13.4244 19 13.4244 19C13.4244 19 21.8168 19 23.9303 18.4311C25.0647 18.1025 25.9409 17.2151 26.2594 16.0885L26.265 16.0651C26.6204 14.1673 26.8238 11.9834 26.8238 9.7526C26.8238 9.67101 26.8238 9.5883 26.8227 9.5056C26.8238 9.4296 26.8238 9.33907 26.8238 9.24854C26.8238 7.0166 26.6204 4.83272 26.2304 2.71478V2.71478ZM10.7387 13.5805V5.42954L17.7418 9.51118L10.7387 13.5805Z" fill="inherit"/>
</svg>
